<?xml version="1.0" encoding="utf-8"?>
<!-- Generator: Adobe Illustrator 20.0.0, SVG Export Plug-In . SVG Version: 6.00 Build 0)  -->
<svg version="1.1" id="Calque_1" xmlns="http://www.w3.org/2000/svg" xmlns:xlink="http://www.w3.org/1999/xlink" x="0px" y="0px"
	 viewBox="0 0 566.3 566.3" style="enable-background:new 0 0 566.3 566.3;" xml:space="preserve">
<style type="text/css">
	.st0{fill:#F3B1B1;}
	.st1{fill:#ACD4A7;}
	.st2{fill:#ECE659;}
	.st3{fill:none;stroke:#00943F;stroke-width:2;stroke-linecap:round;stroke-miterlimit:10;}
	.st4{fill:#0D1726;}
	.st5{fill:#E53E27;}
</style>
<path class="st0" d="M214.2,215.6c-5.9-4.1-14.9-3.3-19.9,1.7c-3.4,3.4-4.4,8.4-2.6,12.8c1.9,4.5,5.7,6.7,10.1,8.4
	c1.2,0.5,2.4,0.5,3.7,0.4c1.3-0.1,2.5-0.5,3.7-1.3c0.4-0.3,0.7-0.5,1-0.8c0.1-0.1,0.3-0.2,0.4-0.3c2.8-2.1,5.4-4.5,7-7.8
	C220.1,223.8,218.7,218.8,214.2,215.6z M200.5,220.2C200.5,220.2,200.5,220.2,200.5,220.2c0,0,0-0.1,0.1-0.1
	C200.6,220.1,200.5,220.1,200.5,220.2z M206.9,220.1c0.1,0,0.1,0,0.2,0.1c0,0,0,0,0.1,0C207.1,220.2,207,220.2,206.9,220.1z"/>
<path class="st0" d="M347.6,224.4c-0.8-3.3-2.7-6.1-5.5-7.7c-2.7-4.1-8.5-6.1-12.9-3.2c-3.5,2.2-5.4,6.5-4.4,10.5
	c-0.5,3.4,0.5,7.3,3.5,9.2c3.1,3.4,8,3.9,12.7,2.9C346.1,235,348.7,229.1,347.6,224.4z"/>
<path class="st1" d="M324.3,304.5c1.4-3.2,2.5-6.4,3.2-9.9c0.8-3.6-6.2-2.1-7.7-1.5c-15.6,6.6-27.3,21.8-37.2,34.9
	c-1.7,2.2,1.1,2.8,4.3,2.5c1.7,0.8,5.4,0.3,7.8-1.1c-0.1,1.8-0.2,3.6-0.1,5.5c0.3,4,9.5,0.2,10.7-1.4c5.6-7.6,11.7-15,16.2-23.2
	c0.9-0.6,1.7-1.1,2.6-1.7C327.1,306.4,326.3,305.1,324.3,304.5z"/>
<path class="st1" d="M250.9,328.5c-0.7-0.5-1.3-1-2-1.5c2.6-1.1,4.5-3.2,2.8-5.4c-7.1-8.9-21.8-20-32.7-10.5c-1.5,1.3-3.2,4-0.7,5.4
	c8.8,4.9,15.9,12.2,24,18.2C246,337.3,255.8,332.1,250.9,328.5z"/>
<path class="st2" d="M165.9,151.2c-1.1-0.1-2.2,0.1-3.3,0.5c-0.1-0.1-0.2-0.1-0.2-0.2c-2.7-2.4-8.3-0.5-10.3,2
	c-0.3,0.4-0.5,0.7-0.7,1.1c-0.3,0.1-0.5,0.2-0.8,0.2c-0.3,0-0.7,0-1,0.1c-1.6,0.2-7.1,1.8-6.3,4.6c1,3.3,3.3,5.7,5.6,8.1
	c0.2,0.7,0.3,1.4,0.5,2.1c0.3,1,1.2,1.5,2.4,1.7c0.9,1.3,1.8,2.5,2.7,3.5c2.1,2.3,12.3-0.3,10.6-3.6c-0.1-0.2-0.3-0.5-0.4-0.7
	c0,0,0,0,0,0c0,0,0-0.1-0.1-0.1c-0.7-1.3-1.6-2.5-2.6-3.6c-0.1-0.2-0.2-0.4-0.4-0.6c4.5-1.3,7.9-5,6.6-11c0-0.1-0.1-0.1-0.1-0.2
	c0.2-0.2,0.4-0.5,0.6-0.7C170.5,152.4,167.4,151.3,165.9,151.2z"/>
<path class="st2" d="M218.2,130.5c1.2-1.5,1.3-2.8,1.5-4.4c0.4-2.4-2-3.5-4.9-3.6c-0.1-0.3-0.2-0.6-0.3-0.8c0-0.5-0.1-1.1,0-1.7
	c0.2-2.5-1.8-3.5-4.4-3.7c-2.4-1.1-5.8-0.9-8.1,0c-4.4,1.8-7.2,4.5-8.6,7.7c-9.8,3.7-16.2,11.8-5.2,18.9c2.3,1.5,5.6,3.4,8.1,2.6
	c0.5-0.2,1.9,1.1,2.4,0.9c1.3,1.3,2.5-1.5,4.3-0.6c3.7,1.6,6.8-2.5,12.6-4.7c0.6-0.2-0.5-1-0.8-1.6c0.4-0.3,0.9-0.5,1.2-0.8
	c2-1.9,1.4-4.6-1.8-5.4C215.8,132.5,217.2,131.6,218.2,130.5z"/>
<path class="st2" d="M366,104.4c-0.8-0.8-1.7-1.5-2.6-2.1c0.2-0.3,0.3-0.6,0.4-0.9c1-10.3-10.5-9.4-17.3-12.2
	c-1.1-0.4-3.7,0.1-5.9,1c-4,0.2-8,0.7-11.1,0.9c-1.1,0.1-9.9,2.3-7.5,4.3c3.1,2.7,6.6,4.2,10.2,5.5c-0.1,0.4-0.2,0.8-0.3,1.2
	c-1.7,1.3-2.7,3-2,5.3c0.1,0.4,0.4,0.8,0.6,1.2c-0.9,0.5-1.5,1.1-1.6,1.8c-0.9,7.3,2.5,14.5,5.6,20.9c1.1,2.2,7.4,0.8,10-1.3
	c1.2-0.5,2.1-1.1,2.6-1.6c0.5-0.5,0.9-1,1.2-1.5c-0.1,1.7-0.2,3.3-0.3,5c0,1.6,7.1,0.9,9.9-1.2c2.8,0.7,9-1.7,9.7-3.4
	C370.3,120.1,372.2,110.8,366,104.4z M344.2,97.6c0-0.1-0.1-0.1-0.1-0.2c0.1,0.1,0.2,0.2,0.3,0.3C344.3,97.6,344.3,97.6,344.2,97.6z
	"/>
<path class="st2" d="M418.7,143.7c-2.2-3.4-5.5-5.1-9.2-6.2c0.4-1.8-0.9-3.5-4.7-3.5c-4.5,0-8.8,0.6-13.1,1.6
	c-7.6,0.9-15,2.3-21.8,6.1c-1.7,0.9-3.6,2.5-3.1,4.7c1.8,7.9,11.2,9.1,18.6,9.1c4.1,11.1,16.9,17.6,28.2,10.3
	C420.9,161.2,423.6,151.2,418.7,143.7z M396.2,151.3c0.2,0,0.4,0,0.6,0c-0.2,0-0.3,0.1-0.5,0.1C396.2,151.4,396.2,151.3,396.2,151.3
	z"/>
<g>
	<path class="st2" d="M337.7,105.6c-2.6-0.3-4.9-2.5-5.1-5.2c-0.1-1.2,0.3-1.8,0.8-2.8c0.2-0.1,0.3-0.3,0.5-0.4
		c-0.5,0.4-1.1,0.6-1.8,0.6c-1.5,0.3-1.8-0.1-0.5,0.7c2.8,1.6,13-2.6,8.9-5c-5.4-3.2-14.9,0-17.9,5.4c-3.4,6,2.6,11.7,8.4,12.3
		c2.6,0.3,5.7-0.4,7.8-2.1C340.2,107.7,340,105.8,337.7,105.6L337.7,105.6z"/>
</g>
<path class="st2" d="M304.6,100.7c-0.3-0.9-0.8-1.7-1.3-2.5c-0.4-2-0.5-4-0.3-6.2c0.2-2.1-1.1-3.2-2.9-3.6c-1.7-3-4-5.6-6.8-8
	c-1.2-1-7,0.3-9.5,1.8c-0.2,0-0.3,0-0.5,0c-3.4,0.2-7.9,1.8-10.1,4.4c-1.9,0.6-3.5,1.5-3.2,2.6c1.3,3.9,2.8,7.7,4.2,11.5
	c-0.3,0.8-0.5,1.5-0.4,2.2c-3.1,0-7.8,1.8-8.5,3.3c-3.8,9.7,7.8,16.9,16.2,17c2.1,0,6.3-0.4,7.8-2.1c0.5-0.5,0.9-1.1,1.1-1.5
	c8.5-3,13.1-9.6,16.3-18C306.8,100.9,305.9,100.7,304.6,100.7z"/>
<path class="st4" d="M259.7,446.5c-1.1,0-2.2-0.5-3-1.4c-1.3-1.6-1-4,0.6-5.4c15.2-12.1,41.3-24.7,58.6-33l2.5-1.2
	c21.6-10.4,47.3-39.8,51-46.2l0.4-0.6c2.5-4.2,3-6.3,3-7.3c-2.1,1.7-5.8,6.1-8.6,9.4c-3.2,3.8-6.8,8.1-10.7,12l-0.3,0.3
	c-10.1,10.2-14.3,14.4-19.1,14.3c-1.4,0-3.4-0.5-5.2-2.6c-4.1-4.6,1.4-10.6,11.2-21.6c2.4-2.6,4.9-5.4,7.4-8.3l0.5-0.6
	c6.1-7.1,17.2-20.1,16.8-23.9c-1.6,0.6-7.2,4-21.5,22.2c-6.9,8.8-28,31.2-36.8,31.8c-1.6,0.1-3.1-0.4-4.2-1.4
	c-2.4-2.3-2.8-4.8-2.8-6.4c0.2-4.7,4.2-9.7,14.5-18.1c15.9-13,32.7-37.9,34.5-45.3c-3.4,1.7-14.7,14.2-24.7,25.3
	c-21.4,23.7-58.1,48.1-68.4,53.4c-18.8,9.6-26.5,5-29.4,1.4c-1.3-1.6-1.9-3.6-1.6-5.8c0.8-7.3,11.4-16.1,14-18.1
	c4.1-4.1,9.6-11.5,9.3-15.3c-0.3-0.3-0.6-0.5-1-0.3l-2.2,1.4c-2.5,1.5-4.2,2.6-10.2,5.4c-7.4,3.5-27.3,24.2-43.9,43.1
	c-13.7,15.7-31.2,40.9-31.4,41.2c-1.2,1.7-3.6,2.2-5.3,1c-1.7-1.2-2.2-3.6-1-5.3c0.2-0.3,17.9-25.8,31.9-41.8
	c5.7-6.6,34.8-39.6,46.4-45c5.7-2.7,7-3.5,9.5-5l2.3-1.4c2.5-1.5,5.5-1.6,8.1-0.2c2.5,1.3,4.1,3.7,4.3,6.4
	c0.7,8.6-9.6,19.3-11.7,21.4c-0.1,0.1-0.2,0.2-0.3,0.3c-6.7,5.2-11.6,11.6-11.3,13.3c1.8,2.2,8.1,2.6,20-3.5
	c8.7-4.5,45.3-28.5,66.2-51.7c23.6-26.1,28.5-31.6,35.9-26.2c0.8,0.6,2.1,1.9,2.2,4.5c0.3,9.5-20.7,39.1-37.5,52.7
	c-8.9,7.3-11.1,10.6-11.6,11.9c5.6-2.7,20.7-16.5,30-28.4c18.9-24,26-27.2,30.9-24.5c2.2,1.2,3.5,3,4,5.4
	c1.3,6.9-6.1,16.1-18.5,30.5l-0.5,0.6c-2.5,3-5.1,5.8-7.5,8.5c-2.6,2.9-5.6,6.2-7.8,8.9c2.6-2.3,6.1-5.8,9.8-9.5l0.3-0.3
	c3.7-3.7,7.1-7.8,10.2-11.5c7.8-9.2,12.9-15.3,18.2-11.8c5.2,3.4,5.1,9.7-0.2,18.6l-0.3,0.5c-4.4,7.7-31.4,38.2-54.3,49.3l-2.5,1.2
	c-16,7.7-42.7,20.5-57.2,32.1C261.4,446.2,260.6,446.5,259.7,446.5z"/>
<g>
	<path d="M273.7,129.1c-1.8,0-3.3-1.5-3.3-3.3v-20.6c0-1.8,1.5-3.3,3.3-3.3c1.8,0,3.3,1.5,3.3,3.3v20.6
		C277,127.6,275.5,129.1,273.7,129.1z"/>
</g>
<path d="M274,59.6c-2.1,0-3.8-1.7-3.8-3.8V25.7c0-2.1,1.7-3.8,3.8-3.8c2.1,0,3.8,1.7,3.8,3.8v30.1C277.9,57.9,276.1,59.6,274,59.6z"
	/>
<g>
	<path class="st4" d="M193.4,77c-1.3,0-2.5-0.6-3.2-1.8l-6.3-10.1c-1.1-1.8-0.6-4.1,1.2-5.3c1.8-1.1,4.1-0.6,5.3,1.2l6.3,10.1
		c1.1,1.8,0.6,4.1-1.2,5.3C194.8,76.8,194.1,77,193.4,77z"/>
	<path class="st4" d="M361.5,77c-0.7,0-1.4-0.2-2-0.6c-1.8-1.1-2.3-3.5-1.2-5.3l6.3-10.1c1.1-1.8,3.5-2.3,5.3-1.2
		c1.8,1.1,2.3,3.5,1.2,5.3l-6.3,10.1C364,76.3,362.7,77,361.5,77z"/>
</g>
<path class="st4" d="M269.8,251.9c-8.6,0-15.7-8.2-15.7-18.3c0-2.1,1.7-3.8,3.8-3.8h23.7c2.1,0,3.8,1.7,3.8,3.8
	C285.5,243.7,278.5,251.9,269.8,251.9z M262.3,237.5c1.2,4,4.1,6.8,7.5,6.8c3.4,0,6.3-2.8,7.5-6.8H262.3z"/>
<circle class="st5" cx="269.8" cy="206.4" r="6"/>
<g>
	<path class="st4" d="M219.5,205.1c-9.6,0-17.8-3.7-20.7-9.4c-1-1.9-0.2-4.2,1.6-5.1c1.9-1,4.2-0.2,5.1,1.6c1.3,2.6,6.7,5.3,14,5.3
		s12.6-2.7,14-5.3c1-1.9,3.3-2.6,5.1-1.6c1.9,1,2.6,3.3,1.6,5.1C237.2,201.4,229.1,205.1,219.5,205.1z"/>
	<path class="st4" d="M320.2,205.1c-9.6,0-17.7-3.7-20.7-9.4c-1-1.9-0.2-4.2,1.6-5.1c1.9-1,4.2-0.2,5.1,1.6c1.3,2.6,6.7,5.3,14,5.3
		c7.3,0,12.6-2.7,14-5.3c1-1.9,3.3-2.6,5.1-1.6c1.9,1,2.6,3.3,1.6,5.1C338,201.4,329.8,205.1,320.2,205.1z"/>
</g>
<path class="st4" d="M409.7,142.8c-6.1-7.3-16.1-10.4-28.1-8.8c-3.9,0.5-7.8,1.5-11.7,2.9c-2.5,0.9-4.9-1.1-4.6-3.7
	c0.2-1.4,0.3-2.9,0.3-4.3c0.4-12.1-3.8-21.7-11.7-27c-11.8-7.9-28.6-4.3-43.2,7.9c-1.9,1.6-4.9,0.7-5.5-1.7
	c-5.1-18.7-17.2-31.6-31.6-31.6c-14.4,0-26.4,12.7-31.6,31.3c-0.7,2.4-3.6,3.3-5.5,1.7c-14.5-12-31.2-15.6-42.9-7.7
	c-8.8,6-12.7,17-11.6,29.8c0.2,2.4-2,4.3-4.4,3.6c-14.3-4-27.6-1.7-35.3,7.4c-6.1,7.3-7.4,17.6-3.8,29.2c2.2,6.8,5.9,13.5,10.9,19.7
	c1.6,2,4.9,1.6,5.9-0.9c0.1-0.2,0.2-0.5,0.3-0.7c0.5-1.2,0.3-2.5-0.5-3.5c-4.3-5.4-7.5-11.1-9.3-16.9c-2.9-9-2-16.8,2.3-22
	c3.6-4.3,9.4-6.4,16.2-6.4c6,0,12.8,1.6,19.6,4.8c0.8,0.4,1.5,1.1,1.8,2c0.4,1.1,0.8,2.2,1.3,3.2c0.8,1.9,3.1,2.6,4.9,1.6
	c1.5-0.8,3-1.6,4.6-2.4c2.3-1.2,2.5-4.5,0.4-6c-1.3-0.9-2.7-1.8-4-2.5c-0.8-0.5-1.4-1.2-1.6-2.1c-3.6-13.7-1.5-26.2,6.5-31.6
	c2.8-1.9,6.2-2.8,9.8-2.8c9.9,0,22,6.7,31.8,17.8c3.3,4.1,5,6.6,5.8,8c0.7,1.2,2.1,1.9,3.5,1.6c9.5-1.5,12.9,0.5,24.8,0.5
	c12.1,0,14.1-0.9,23.6,0.9c1.5,0.3,2.9-0.4,3.6-1.7c1-1.8,3-4.7,6.9-8.9c13.3-15.5,31.4-22.5,42-15.4c5.6,3.8,8.6,11.1,8.3,20.5
	c-0.2,5.1-1.3,10.5-3.2,15.9c-0.7,1.5-1.2,2.6-1.6,3.4c-0.7,1.6-0.1,3.6,1.5,4.4c0,0,0,0,0.1,0c2.2-0.6,3.5-0.9,5.7-1.5
	c0.4-0.9,1.1-1.6,2-2.1c6.6-3.9,13.5-6.5,20.2-7.3c9.3-1.3,16.9,0.9,21.2,6.1c4.4,5.2,5.2,13,2.3,22c-2.3,7.1-6.7,14.3-12.6,20.7
	c-0.9,0.9-1.2,2.3-0.8,3.5c0.3,1,0.6,1.9,0.9,2.9c1.3,0.1,2.6,0.3,3.8,0.6c7.5-7.7,13.1-16.4,16-25.3
	C417.2,160.4,415.8,150.1,409.7,142.8z M296.5,125.9L296.5,125.9c-0.5,0.7-0.9,1.4-1.3,2c-0.6,1-1.7,1.7-3,1.7h-36.8
	c-1.2,0-2.3-0.6-3-1.7c-0.4-0.7-0.9-1.4-1.3-2c-1.2-1.8-2.5-3.5-3.7-5.1c2.3-20.5,13.4-36.6,26.2-36.6c12.7,0,23.6,15.6,26.1,35.6
	c0.1,0.9-0.1,1.8-0.7,2.5C298.2,123.5,297.3,124.7,296.5,125.9z"/>
<path class="st4" d="M396.7,189.4c-1.7-5.5-4.3-10.9-7.8-16c-2.6-3.8-5.7-7.5-9.2-10.9l4.9-4.9c1.3-1.3,1.3-3.4,0-4.7
	c-1.3-1.3-3.4-1.3-4.7,0l-5.1,5.1c-3.9-3.4-8.3-6.6-13.1-9.6c-8.7-5.4-18.6-9.9-29.3-13.5l4.5-10.8c0.7-1.7-0.1-3.7-1.8-4.4
	c-1.7-0.7-3.7,0.1-4.4,1.8l-4.7,11.4c-1.3-0.4-2.6-0.8-4-1.2c-15.3-4-31.6-6-48.3-6c-16.7,0-33,2-48.3,6c-1.6,0.4-3.1,0.9-4.7,1.4
	l-4-9.7c-0.7-1.7-2.6-2.5-4.4-1.8c-1.7,0.7-2.5,2.7-1.8,4.4l3.7,9c-10.5,3.5-20.1,8-28.6,13.3c-5.2,3.2-10,6.7-14.2,10.5l-4-4
	c-1.3-1.3-3.4-1.3-4.7,0s-1.3,3.4,0,4.7l3.9,3.9c-3.1,3.2-5.8,6.5-8.2,10c-3.5,5.1-6.1,10.5-7.8,16c-11.1,1.8-19.2,9.3-19.2,18.2
	c0,9.7,9.2,17.5,21.4,18.6c1.5,3.5,3.4,6.8,5.6,10c6.4,9.4,15.6,17.8,27.2,25c11.5,7.1,24.8,12.7,39.7,16.6
	c13.1,3.4,26.9,5.3,41.1,5.8v49.5c-5.2-9.7-15.4-19.8-32.2-18c-1,0.1-2,0.6-2.6,1.5c-0.6,0.8-0.9,1.9-0.7,2.9
	c3.2,21.9,23.2,27.6,34.4,27.6c0.4,0,0.8,0,1.2,0v27.7c0,2.1,1.7,3.8,3.8,3.8s3.8-1.7,3.8-3.8v-34c12.9-0.7,52.9-6.4,59.1-48.7
	c0.2-1-0.1-2.1-0.8-2.9c-0.6-0.8-1.6-1.3-2.6-1.5c-30.3-3.4-47.2,15.3-55.8,30.4v-34.4c16.6,0,32.7-2.1,47.9-6
	c14.9-3.9,28.2-9.5,39.7-16.6c11.6-7.2,20.8-15.6,27.2-25c2.2-3.2,4.1-6.6,5.6-10c12.2-1.1,21.4-8.9,21.4-18.6
	C415.9,198.7,407.8,191.2,396.7,189.4z M239.4,322.7c12.4,0.6,18.6,10.3,21.4,16.5C254.1,338.2,243.1,334.7,239.4,322.7z
	 M285.2,314.7c9.7-13,22.3-19.6,37.4-19.6c0.7,0,1.5,0,2.2,0c-3.5,16-13.2,27.3-28.9,33.5c-8,3.1-15.7,4.2-20.6,4.6
	C277,328.7,280.1,321.6,285.2,314.7z M391.8,218.8c-1.6,0-2.9,1-3.5,2.4c-1.5,3.8-3.4,7.4-5.7,10.8c-5.8,8.5-14.2,16.2-24.9,22.8
	c-10.8,6.7-23.5,12-37.6,15.7c-14.7,3.8-30.3,5.8-46.4,5.8c-16.1,0-31.7-1.9-46.4-5.8c-14.1-3.7-26.8-9-37.6-15.7
	c-10.7-6.6-19.1-14.3-24.9-22.8c-2.3-3.4-4.3-7.1-5.7-10.8c-0.6-1.5-2-2.4-3.5-2.4c-8.9-0.1-16.4-5.2-16.4-11.1
	c0-5.5,6.5-10.3,14.8-11c1.6-0.1,3-1.3,3.4-2.8c1.4-5.6,3.9-11,7.5-16.1c5.8-8.5,14.2-16.2,24.9-22.8c10.8-6.7,23.5-12,37.6-15.7
	c14.7-3.8,30.3-5.8,46.4-5.8c16.1,0,31.7,1.9,46.4,5.8c14.1,3.7,26.8,9,37.6,15.7c10.7,6.6,19.1,14.3,24.9,22.8
	c3.5,5.2,6,10.6,7.5,16.1c0.4,1.6,1.8,2.7,3.4,2.8c8.3,0.6,14.8,5.5,14.8,11C408.3,213.6,400.7,218.7,391.8,218.8z"/>
<path d="M527.4,446.5H37.9c-2.1,0-3.8-1.7-3.8-3.8c0-2.1,1.7-3.8,3.8-3.8h489.5c2.1,0,3.8,1.7,3.8,3.8
	C531.2,444.8,529.5,446.5,527.4,446.5z"/>
<path d="M527.4,500H37.9c-0.5,0-1-0.4-1-1s0.4-1,1-1h489.5c0.5,0,1,0.4,1,1S527.9,500,527.4,500z"/>
<g>
	<path class="st4" d="M42.3,471.9c-3.2-2.3-4.2-4.8-4.2-8.1c0-5.8,4.5-8.6,9.7-8.6c6.9,0,9.1,4.9,9.1,8.3c0,2.1-1.3,3.1-3,3.1
		c-2.5,0-2.8-1.1-3.1-3.5c-0.3-2.3-1.6-3.1-3.3-3.1c-1.9,0-3.2,1.2-3.2,3.2c0,1.5,0.3,2.9,3.3,4.9l4.5,3c3.3,2.2,5.3,4.6,5.3,9.4
		c0,5.7-3.4,9.2-10.4,9.2c-8,0-9-7.1-9-8.7c0-2.2,0.5-4.2,3.1-4.2c1.9,0,2.8,1.1,3,4c0.1,2.2,1.2,4.1,3.7,4.1c2.4,0,3.6-1.7,3.6-3.8
		c0-2.2-0.9-3.3-3.1-4.9L42.3,471.9z"/>
	<path class="st4" d="M67.1,480.6l-1.2,5.9c-0.4,2.1-1.2,2.9-3.2,2.9c-1.8,0-2.9-1.1-2.9-2.7c0-0.5,0.1-1.6,0.4-2.5l5.9-24.6
		c0.8-3.3,1.6-4.3,5-4.3c3.1,0,4.2,1,5,4.3l5.8,24.5c0.2,1,0.5,2,0.5,2.5c0,2.1-1.5,2.8-3,2.8c-2.2,0-3.1-0.9-3.7-4l-1-4.8H67.1z
		 M73.7,475.8L71,462.1h-0.1l-2.8,13.7H73.7z"/>
	<path class="st4" d="M104.5,486.9c0,1.6-0.6,2.5-2.4,2.5c-1.6,0-2.4-1.2-2.4-2.7v-0.9h-0.1c-1.3,2.4-3.3,3.6-6.1,3.6
		c-7.2,0-8.8-6.4-8.8-15.8v-3.3c0-11.2,3-15.1,10.5-15.1c6.5,0,9.3,4.2,9.3,8c0,2.2-0.9,3.7-3.1,3.7c-2.1,0-2.8-1.1-3.1-3.9
		c-0.1-1.4-1-2.9-3.5-2.9c-2.2,0-3.8,1.3-3.8,8.9v4.6c0,8,0.7,11.1,4.1,11.1c2.7,0,3.5-2.6,3.5-6.7V476h-2.5c-1.7,0-2.5-1.2-2.5-2.6
		c0-1.8,1-2.6,2.6-2.6h5.1c2.2,0,3.1,1,3.1,3V486.9z"/>
	<path class="st4" d="M115.3,483.4h9.4c2.3,0,3.2,1.2,3.2,2.7c0,1.6-0.9,2.7-3.2,2.7h-12.2c-2.2,0-3.3-1-3.3-3.3v-26.3
		c0-2.3,1.1-3.3,3.3-3.3h11.9c2.3,0,3.2,1.2,3.2,2.7c0,1.6-0.9,2.7-3.2,2.7h-9.1v7.6h8.5c2.3,0,3.2,1.2,3.2,2.7
		c0,1.6-0.9,2.7-3.2,2.7h-8.5V483.4z"/>
	<path class="st4" d="M135.5,471.9c-3.2-2.3-4.2-4.8-4.2-8.1c0-5.8,4.5-8.6,9.7-8.6c6.9,0,9.1,4.9,9.1,8.3c0,2.1-1.3,3.1-3,3.1
		c-2.5,0-2.8-1.1-3.1-3.5c-0.3-2.3-1.6-3.1-3.3-3.1c-1.9,0-3.2,1.2-3.2,3.2c0,1.5,0.3,2.9,3.3,4.9l4.5,3c3.3,2.2,5.3,4.6,5.3,9.4
		c0,5.7-3.4,9.2-10.4,9.2c-8,0-9-7.1-9-8.7c0-2.2,0.5-4.2,3.1-4.2c1.9,0,2.8,1.1,3,4c0.1,2.2,1.2,4.1,3.7,4.1c2.4,0,3.6-1.7,3.6-3.8
		c0-2.2-0.9-3.3-3.1-4.9L135.5,471.9z"/>
	<path class="st4" d="M157,478.5c-2,0-2.8-1.2-2.8-2.6c0-1.4,0.9-2.6,2.8-2.6h6c2,0,2.8,1.2,2.8,2.6c0,1.4-0.9,2.6-2.8,2.6H157z"/>
	<path class="st4" d="M176.3,486.3c0,1.9-1.4,3.2-3.1,3.2c-1.6,0-3.1-1.2-3.1-3.2v-27.1c0-2.3,1.1-3.3,3.3-3.3h11.3
		c2.3,0,3.2,1.2,3.2,2.7c0,1.6-0.9,2.7-3.2,2.7h-8.5v7.6h8.5c2.3,0,3.2,1.2,3.2,2.7c0,1.6-0.9,2.7-3.2,2.7h-8.5V486.3z"/>
	<path class="st4" d="M198.2,483.4h9.4c2.3,0,3.2,1.2,3.2,2.7c0,1.6-0.9,2.7-3.2,2.7h-12.2c-2.2,0-3.3-1-3.3-3.3v-26.3
		c0-2.3,1.1-3.3,3.3-3.3h11.9c2.3,0,3.2,1.2,3.2,2.7c0,1.6-0.9,2.7-3.2,2.7h-9.1v7.6h8.5c2.3,0,3.2,1.2,3.2,2.7
		c0,1.6-0.9,2.7-3.2,2.7h-8.5V483.4z"/>
	<path class="st4" d="M215.1,459.9c0-3,1-4.5,4.9-4.5c3.1,0,4.7,1.1,5.4,4.9l3,15.8h0.1l3-15.8c0.7-3.7,2.3-4.9,5.4-4.9
		c4,0,4.9,1.6,4.9,4.5v26.4c0,1.9-1.4,3.2-3.1,3.2c-1.6,0-3.1-1.2-3.1-3.2v-23.6h-0.1l-5,24.8c-0.2,1.1-0.6,2-2.2,2s-2-1-2.2-2
		l-5-24.8h-0.1v23.6c0,1.9-1.4,3.2-3.1,3.2c-1.6,0-3.1-1.2-3.1-3.2V459.9z"/>
	<path class="st4" d="M247.3,459.9c0-3,1-4.5,4.9-4.5c3.1,0,4.7,1.1,5.4,4.9l3,15.8h0.1l3-15.8c0.7-3.7,2.3-4.9,5.4-4.9
		c4,0,4.9,1.6,4.9,4.5v26.4c0,1.9-1.4,3.2-3.1,3.2s-3.1-1.2-3.1-3.2v-23.6h-0.1l-5,24.8c-0.2,1.1-0.6,2-2.2,2s-2-1-2.2-2l-5-24.8
		h-0.1v23.6c0,1.9-1.4,3.2-3.1,3.2c-1.6,0-3.1-1.2-3.1-3.2V459.9z"/>
	<path class="st4" d="M285.5,483.4h9.4c2.3,0,3.2,1.2,3.2,2.7c0,1.6-0.9,2.7-3.2,2.7h-12.2c-2.2,0-3.3-1-3.3-3.3v-26.3
		c0-2.3,1-3.3,3.3-3.3h11.9c2.3,0,3.2,1.2,3.2,2.7c0,1.6-0.9,2.7-3.2,2.7h-9.1v7.6h8.5c2.3,0,3.2,1.2,3.2,2.7c0,1.6-0.9,2.7-3.2,2.7
		h-8.5V483.4z"/>
	<path class="st4" d="M305.7,471.9c-3.2-2.3-4.2-4.8-4.2-8.1c0-5.8,4.5-8.6,9.7-8.6c6.9,0,9.1,4.9,9.1,8.3c0,2.1-1.3,3.1-3,3.1
		c-2.5,0-2.8-1.1-3.1-3.5c-0.3-2.3-1.6-3.1-3.3-3.1c-1.9,0-3.2,1.2-3.2,3.2c0,1.5,0.3,2.9,3.3,4.9l4.5,3c3.3,2.2,5.3,4.6,5.3,9.4
		c0,5.7-3.4,9.2-10.4,9.2c-8,0-9-7.1-9-8.7c0-2.2,0.5-4.2,3.1-4.2c1.9,0,2.8,1.1,3,4c0.1,2.2,1.2,4.1,3.7,4.1c2.4,0,3.6-1.7,3.6-3.8
		c0-2.2-0.9-3.3-3.1-4.9L305.7,471.9z"/>
	<path class="st4" d="M351.4,483.4c2.3,0,3.2,1.2,3.2,2.7c0,1.6-0.9,2.7-3.2,2.7h-12c-2.2,0-3.3-1-3.3-3.3v-27.1
		c0-1.9,1.4-3.2,3.1-3.2c1.6,0,3.1,1.2,3.1,3.2v24.9H351.4z"/>
	<path class="st4" d="M358.3,458.5c0-1.9,1.4-3.2,3.1-3.2c1.6,0,3.1,1.2,3.1,3.2v27.8c0,1.9-1.4,3.2-3.1,3.2c-1.6,0-3.1-1.2-3.1-3.2
		V458.5z"/>
	<path class="st4" d="M369.8,459.2c0-2.3,1-3.3,3.3-3.3h8.2c5.3,0,7.3,3.4,7.3,8.5c0,3.2-1.3,5.9-3.4,6.8c3.4,1.2,4.3,4,4.3,7.5
		c0,5.3-2.2,10.2-8.5,10.2h-7.9c-2.2,0-3.3-1-3.3-3.3V459.2z M376,469.3h2.8c2.5,0,3.7-1.5,3.7-4.5c0-3.1-1.4-4.2-3.3-4.2H376V469.3
		z M376,484.2h3.7c2.3,0,3.5-1.8,3.5-5.4c0-2.6-0.8-4.8-3.6-4.8H376V484.2z"/>
	<path class="st4" d="M399.7,483.4h9.4c2.3,0,3.2,1.2,3.2,2.7c0,1.6-0.9,2.7-3.2,2.7h-12.2c-2.2,0-3.3-1-3.3-3.3v-26.3
		c0-2.3,1-3.3,3.3-3.3h11.9c2.3,0,3.2,1.2,3.2,2.7c0,1.6-0.9,2.7-3.2,2.7h-9.1v7.6h8.5c2.3,0,3.2,1.2,3.2,2.7c0,1.6-0.9,2.7-3.2,2.7
		h-8.5V483.4z M404.4,446.3c0.6-0.6,1.1-0.7,1.8-0.7c1,0,2,0.7,2,2c0,0.8-0.5,1.6-1.1,2.1l-3.6,3.3c-0.5,0.5-1,0.7-1.6,0.7
		c-1.2,0-1.9-0.9-1.9-2c0-0.6,0.3-1.1,0.7-1.5L404.4,446.3z"/>
	<path class="st4" d="M416.4,459.2c0-2.3,1-3.3,3.3-3.3h8.4c5.5,0,7.4,3.8,7.4,8.5c0,4.3-1.2,6.3-4,7.4c3.2,1.1,3.8,3.2,3.8,7v3.5
		c0,1.8,0.4,3.5,0.4,5.1c0,1-0.9,2-2.9,2c-2.3,0-3.7-1-3.7-3.1l-0.3-8.4c-0.1-2.3-1.2-3.4-3.6-3.4h-2.7v11.8c0,1.9-1.4,3.2-3.1,3.2
		c-1.6,0-3.1-1.2-3.1-3.2V459.2z M422.6,469.9h2.4c2.5,0,4.2-1.1,4.2-4.7c0-3.3-1-4.7-3.9-4.7h-2.7V469.9z"/>
	<path class="st4" d="M445.5,480.6l-1.2,5.9c-0.4,2.1-1.2,2.9-3.2,2.9c-1.8,0-2.9-1.1-2.9-2.7c0-0.5,0.1-1.6,0.4-2.5l5.9-24.6
		c0.8-3.3,1.6-4.3,5-4.3c3.1,0,4.2,1,5,4.3l5.8,24.5c0.2,1,0.5,2,0.5,2.5c0,2.1-1.5,2.8-3,2.8c-2.2,0-3.1-0.9-3.7-4l-1-4.8H445.5z
		 M452.1,475.8l-2.7-13.7h-0.1l-2.8,13.7H452.1z"/>
	<path class="st4" d="M479.2,483.4c2.3,0,3.2,1.2,3.2,2.7c0,1.6-0.9,2.7-3.2,2.7h-12c-2.2,0-3.3-1-3.3-3.3v-27.1
		c0-1.9,1.4-3.2,3.1-3.2c1.6,0,3.1,1.2,3.1,3.2v24.9H479.2z"/>
	<path class="st4" d="M492,483.4h9.4c2.3,0,3.2,1.2,3.2,2.7c0,1.6-0.9,2.7-3.2,2.7h-12.2c-2.2,0-3.3-1-3.3-3.3v-26.3
		c0-2.3,1-3.3,3.3-3.3h11.9c2.3,0,3.2,1.2,3.2,2.7c0,1.6-0.9,2.7-3.2,2.7H492v7.6h8.5c2.3,0,3.2,1.2,3.2,2.7c0,1.6-0.9,2.7-3.2,2.7
		H492V483.4z"/>
	<path class="st4" d="M512.2,471.9c-3.2-2.3-4.2-4.8-4.2-8.1c0-5.8,4.5-8.6,9.7-8.6c6.9,0,9.1,4.9,9.1,8.3c0,2.1-1.3,3.1-3,3.1
		c-2.5,0-2.8-1.1-3.1-3.5c-0.3-2.3-1.6-3.1-3.3-3.1c-1.9,0-3.2,1.2-3.2,3.2c0,1.5,0.3,2.9,3.3,4.9l4.5,3c3.3,2.2,5.3,4.6,5.3,9.4
		c0,5.7-3.4,9.2-10.4,9.2c-8,0-9.1-7.1-9.1-8.7c0-2.2,0.5-4.2,3.1-4.2c1.9,0,2.8,1.1,3,4c0.1,2.2,1.2,4.1,3.7,4.1
		c2.4,0,3.6-1.7,3.6-3.8c0-2.2-0.9-3.3-3.1-4.9L512.2,471.9z"/>
</g>
<g>
	<path class="st4" d="M137.7,522.6c0.2-0.8,0.7-1.3,1.4-1.6c0.7-0.3,1.4-0.4,2.1-0.3c0.7,0.1,1.3,0.4,1.8,0.9c0.5,0.5,0.5,1.2,0.3,2
		c-0.7,2.1-1.5,4-2.4,5.7c-0.9,1.7-2,3.2-3.1,4.5c-1.2,1.3-2.5,2.2-3.9,2.9c-1.4,0.7-3,1-4.7,1c-1.2,0-2.3-0.2-3.4-0.5
		c-1.1-0.3-2-0.9-2.8-1.5c-0.8-0.7-1.4-1.5-1.9-2.4c-0.5-1-0.7-2.1-0.7-3.3c0-1.1,0.2-2.2,0.5-3.3c0.4-1.2,0.8-2.2,1.1-3.2
		c0.3-0.9,0.7-2,1.1-3.3c-1.4,0-2.7,0-3.9,0c-1.3,0-2.6,0-4.1,0c-0.4,1.1-0.8,2.2-1.2,3.5c-0.4,1.3-0.9,2.6-1.3,3.9
		c-0.5,1.3-0.9,2.6-1.3,3.9c-0.4,1.3-0.8,2.4-1.2,3.5c-0.3,0.9-0.7,1.5-1.2,2c-0.5,0.5-1.1,0.7-1.7,0.9c-0.6,0.1-1.2,0.1-1.9,0
		c-0.6-0.2-1.1-0.4-1.6-0.8c-0.4-0.4-0.7-0.9-0.9-1.6c-0.2-0.6-0.1-1.3,0.2-2.1l4.5-13h-1.1c-0.9,0-1.6-0.3-2.1-0.9
		c-0.5-0.6-0.7-1.3-0.7-2c0-0.7,0.3-1.4,0.9-2c0.6-0.6,1.6-0.9,3-0.9h2l4.6-13.3c0.3-0.9,0.7-1.6,1.2-2.2c0.5-0.5,1.1-0.9,1.7-1.1
		c0.6-0.2,1.2-0.2,1.9-0.1c0.6,0.1,1.1,0.4,1.6,0.8c0.4,0.4,0.7,1,0.8,1.7c0.1,0.7,0,1.6-0.3,2.5l-3.9,11.6h7.9c0.3-1,0.7-2,1.1-3.1
		c0.4-1.1,0.7-2.2,1.1-3.4c0.4-1.1,0.8-2.3,1.2-3.4c0.4-1.1,0.7-2.2,1.1-3.1c0.3-0.9,0.8-1.7,1.3-2.2c0.6-0.5,1.2-0.9,1.8-1
		c0.6-0.2,1.2-0.1,1.8,0c0.6,0.2,1.1,0.5,1.5,0.9c0.4,0.4,0.7,1,0.8,1.7c0.1,0.7,0.1,1.5-0.2,2.3l-8.4,24.5
		c-0.3,0.9-0.5,1.6-0.5,2.3c0,0.7,0.2,1.2,0.5,1.5c0.3,0.3,0.8,0.5,1.4,0.5c1.5,0,2.9-0.8,4.3-2.5
		C135.4,527.9,136.6,525.6,137.7,522.6z"/>
	<path class="st4" d="M160.6,525.4c0.2-0.7,0.5-1.2,1-1.6c0.4-0.4,0.9-0.7,1.4-0.8c0.5-0.1,1-0.2,1.5-0.1c0.5,0.1,0.9,0.3,1.3,0.6
		c0.3,0.3,0.5,0.8,0.6,1.3c0.1,0.5,0,1.2-0.3,1.9c-0.2,0.5-0.3,0.9-0.5,1.2s-0.3,0.6-0.5,1.1c-0.8,1.6-1.6,3-2.6,4.1
		c-0.9,1.1-1.9,2-2.8,2.6s-2,1.1-3,1.4c-1,0.3-2,0.4-2.9,0.4c-0.4,0-0.8,0-1.4-0.1c-0.6-0.1-1.1-0.2-1.8-0.4
		c-0.6-0.2-1.2-0.5-1.8-0.8c-0.6-0.4-1-0.8-1.3-1.4c-0.8,0.7-1.7,1.3-2.8,1.7c-1,0.4-2.1,0.6-3.1,0.6c-1,0-1.9-0.2-2.8-0.5
		c-0.9-0.4-1.6-0.9-2.2-1.5c-0.6-0.6-1.1-1.4-1.5-2.2c-0.4-0.8-0.5-1.7-0.5-2.7c0-0.4,0-0.8,0.1-1.2c0.1-0.4,0.2-0.8,0.3-1.2
		l4.3-12.1c0.7-1.7,1.7-3,3.1-3.9c1.4-0.9,2.9-1.3,4.4-1.3c1.3,0,2.4,0.2,3.2,0.5c0.9,0.3,1.6,0.6,2,0.9c0.5-0.7,1.3-1.1,2.1-1.3
		c0.9-0.2,1.7-0.2,2.4,0.1c0.7,0.3,1.3,0.8,1.7,1.5c0.4,0.7,0.4,1.7,0,2.8l-5.1,14.6c-0.2,0.6-0.2,1-0.2,1.3c0,0.8,0.4,1.1,1.2,1.1
		c1,0,2.1-0.5,3.2-1.6C158.5,529.5,159.6,527.8,160.6,525.4z M143.1,530.6c0.2,0.1,0.5,0.1,0.8,0c0.3-0.1,0.7-0.2,1-0.5
		c0.4-0.2,0.7-0.6,1.1-1.1c0.4-0.5,0.8-1.2,1.1-2l1.6-4.7c0.4-1.1,0.5-2,0.5-2.6c0-0.7-0.1-1.2-0.3-1.5c-0.2-0.3-0.4-0.6-0.6-0.7
		c-0.2-0.1-0.3-0.2-0.4-0.2c0,0-0.2-0.1-0.4-0.1c-0.2,0-0.5,0-0.8,0.1c-0.3,0.1-0.7,0.4-1.1,0.9c-0.4,0.4-0.8,1.2-1.1,2.1l-2.4,7.1
		c-0.1,0.2-0.2,0.5-0.2,0.8c-0.1,0.3-0.1,0.6,0,1c0,0.3,0.1,0.6,0.3,0.9C142.5,530.3,142.8,530.5,143.1,530.6z"/>
	<path class="st4" d="M185.6,524.6c0.3-0.9,0.8-1.5,1.5-1.8c0.7-0.3,1.4-0.4,2.1-0.2c0.7,0.2,1.3,0.5,1.7,1c0.4,0.5,0.5,1.2,0.3,2
		c-0.8,2.4-1.7,4.4-2.7,5.9c-1,1.6-2.1,2.8-3.2,3.8c-1.1,0.9-2.2,1.6-3.3,2c-1.1,0.4-2.2,0.6-3.3,0.6c-1.4,0-2.6-0.3-3.8-0.8
		c-1.2-0.6-2.1-1.3-2.7-2.3c-0.9,0.9-1.9,1.7-3,2.3c-1.1,0.6-2.4,0.9-3.8,0.9c-1,0-1.9-0.2-2.7-0.5c-0.8-0.3-1.5-0.7-2.2-1.3
		c-0.6-0.5-1.1-1.2-1.5-2s-0.5-1.6-0.5-2.5c0-0.8,0.1-1.6,0.4-2.4l5.6-15.7c0.3-0.8,0.7-1.4,1.2-1.8c0.5-0.4,1-0.7,1.6-0.8
		c0.6-0.1,1.1,0,1.7,0.1c0.5,0.2,1,0.5,1.4,0.9c0.4,0.4,0.6,0.9,0.8,1.5c0.1,0.6,0,1.3-0.2,2l-5.3,14.4c-0.2,0.5-0.2,0.9-0.2,1.3
		c0,0.8,0.3,1.1,1.1,1.1c0.5,0,0.9-0.1,1.4-0.4s1-0.6,1.5-1c0.5-0.4,0.9-0.9,1.3-1.4c0.4-0.6,0.8-1.1,1.1-1.8l5-14.2
		c0.4-1.2,1.1-2,1.9-2.4c0.9-0.4,1.7-0.4,2.5-0.2c0.8,0.3,1.4,0.8,1.9,1.5c0.5,0.7,0.5,1.6,0.1,2.7l-5.4,15.4
		c-0.1,0.2-0.1,0.5-0.1,0.7c0,0.3,0.1,0.6,0.4,0.8c0.2,0.2,0.6,0.3,1,0.3c1,0,2.1-0.6,3.3-1.9C183.4,529.3,184.5,527.3,185.6,524.6z
		"/>
	<path class="st4" d="M200.3,524.8c0.3-0.9,0.9-1.5,1.6-1.8c0.7-0.3,1.4-0.4,2.1-0.2c0.7,0.2,1.2,0.5,1.6,1s0.5,1.2,0.2,2
		c-1.3,3.8-3.1,6.7-5.4,8.7c-2.3,2-5,3.1-7.9,3.1c-1.2,0-2.3-0.2-3.4-0.5c-1.1-0.3-2-0.8-2.8-1.5c-0.8-0.6-1.4-1.4-1.9-2.3
		s-0.7-2-0.7-3.1c0-0.9,0.2-2,0.5-3.1v0c0.3-1,0.7-1.9,1-2.7c0.3-0.8,0.6-1.7,0.9-2.5c0.3-0.8,0.6-1.7,0.9-2.5
		c0.3-0.8,0.6-1.7,1-2.7h-1.5c-0.7,0-1.2-0.3-1.6-0.8c-0.4-0.6-0.5-1.2-0.4-1.9c0.1-0.7,0.4-1.3,0.9-1.9c0.5-0.6,1.4-0.8,2.6-0.8
		h1.9l3.5-9.6c0.4-1.2,1-1.9,1.8-2.3c0.8-0.4,1.7-0.5,2.4-0.2c0.8,0.2,1.4,0.6,1.9,1.3c0.5,0.7,0.6,1.4,0.3,2.3l-3,8.6h2.1
		c1,0,1.7,0.3,2.1,0.8c0.4,0.6,0.5,1.2,0.4,1.9c-0.1,0.7-0.5,1.3-1.1,1.9c-0.6,0.6-1.4,0.8-2.5,0.8h-3l-4.3,12.2
		c-0.1,0.3-0.2,0.6-0.2,1c0,0.6,0.2,1.1,0.7,1.6c0.5,0.4,1.1,0.6,1.9,0.6c1.3,0,2.7-0.6,4-1.8C198.3,529.2,199.4,527.3,200.3,524.8z
		"/>
	<path class="st4" d="M222.1,524.7c0.2-0.8,0.7-1.4,1.4-1.7c0.7-0.3,1.4-0.5,2.1-0.3c0.7,0.1,1.3,0.4,1.7,0.9
		c0.4,0.5,0.5,1.2,0.2,2.1c-0.8,2.2-1.8,4-3,5.6c-1.2,1.5-2.6,2.7-4.1,3.7c-1.5,0.9-3.1,1.6-4.7,2.1c-1.6,0.4-3.3,0.6-4.8,0.6
		c-1.7,0-3.2-0.2-4.7-0.6c-1.4-0.4-2.7-1-3.7-1.8c-1.1-0.8-1.9-1.7-2.5-2.8c-0.6-1.1-0.9-2.3-0.9-3.7c0-0.5,0.1-1,0.2-1.6
		c0.1-0.5,0.3-1.1,0.4-1.6l2.7-7.8c0.4-1.1,0.9-2.1,1.6-3c0.7-0.9,1.4-1.6,2.3-2.2c0.9-0.6,1.8-1,2.8-1.3c1-0.3,2-0.4,3-0.4
		c1.3,0,2.5,0.2,3.5,0.6c1.1,0.4,2,0.9,2.7,1.6c0.7,0.7,1.3,1.5,1.7,2.4c0.4,0.9,0.6,1.9,0.6,3c0,0.8-0.1,1.6-0.4,2.5
		c-0.3,1-0.8,2-1.3,2.8c-0.6,0.8-1.3,1.5-2.1,2.1c-0.8,0.6-1.7,1-2.6,1.3c-1,0.3-2,0.5-3,0.5c-0.9,0-1.8-0.1-2.6-0.4
		c-0.8-0.2-1.5-0.6-2.2-1l-0.4,0.9c-0.2,0.4-0.2,0.8-0.2,1.3c0,1.1,0.5,2,1.5,2.7c1,0.7,2.3,1.1,4,1.1c1,0,2-0.1,3-0.4
		c1.1-0.3,2.1-0.7,3-1.3c1-0.6,1.8-1.4,2.7-2.3S221.6,526.1,222.1,524.7z M212,516.2c-0.5,0-1,0.2-1.5,0.6c-0.5,0.4-0.9,0.9-1.2,1.6
		l-1,2.7c0.4,0.2,0.9,0.4,1.5,0.5c0.6,0.1,1.1,0.1,1.7,0c0.5-0.1,1-0.3,1.5-0.6c0.4-0.3,0.8-0.8,0.9-1.4c0.1-0.3,0.2-0.7,0.2-1.1
		c0-0.6-0.2-1.2-0.6-1.6C213.2,516.5,212.7,516.2,212,516.2z"/>
	<path class="st4" d="M237.7,516.5c0.7,0,1.3,0.3,1.6,0.9c0.3,0.6,0.4,1.3,0.3,2c-0.1,0.7-0.5,1.4-1.2,2c-0.6,0.6-1.6,0.9-2.8,0.9
		l-9,0c-0.8,0-1.4-0.3-1.8-0.9c-0.4-0.6-0.5-1.3-0.3-2c0.1-0.7,0.5-1.4,1.1-2c0.6-0.6,1.5-0.9,2.7-0.9H237.7z"/>
	<path class="st4" d="M268.8,524.5c0.2-0.5,0.4-0.9,0.8-1.2c0.4-0.3,0.8-0.5,1.3-0.6c0.5-0.1,0.9-0.1,1.4,0c0.5,0.1,0.9,0.3,1.2,0.5
		c0.3,0.3,0.6,0.6,0.8,1c0.2,0.4,0.1,0.9,0,1.5c-0.7,2.1-1.6,3.9-2.5,5.4c-1,1.5-2,2.8-3.1,3.8c-1.1,1-2.3,1.7-3.5,2.2
		c-1.2,0.5-2.5,0.7-3.8,0.7c-1.1,0-2.2-0.2-3.1-0.5c-0.9-0.3-1.7-0.8-2.4-1.5c-0.7-0.6-1.2-1.4-1.5-2.3c-0.4-0.9-0.5-1.9-0.5-3.1
		c0-0.6,0.1-1.3,0.2-2c0.1-0.7,0.3-1.4,0.5-2.1l6.3-17.7c0.1-0.3,0.2-0.6,0.2-0.9c0-0.2,0-0.5,0-0.7c0-0.8-0.3-1.4-0.8-1.8
		c-0.5-0.4-1.1-0.6-1.9-0.6c-1,0-2.1,0.3-3.1,1.1c-1,0.7-1.8,1.7-2.3,3.1v0l-9.1,25.7c-0.2,0.9-0.6,1.6-1.2,2.1
		c-0.5,0.5-1.1,0.9-1.8,1.1c-0.6,0.2-1.3,0.2-1.9,0.1s-1.2-0.4-1.6-0.8c-0.5-0.4-0.8-0.9-1-1.5c-0.2-0.6-0.1-1.3,0.1-2.1l11.8-33.5
		c0.2-0.7,0.7-1.2,1.4-1.5c0.7-0.3,1.4-0.4,2.2-0.3c0.7,0.1,1.4,0.3,2,0.8c0.6,0.4,0.8,1,0.8,1.6c0.5-0.5,1.1-0.8,1.6-1.1
		c0.5-0.3,1.1-0.5,1.6-0.6c0.5-0.1,1-0.2,1.5-0.2c0.5,0,0.9,0,1.2,0c1.1,0.1,2.1,0.3,3.1,0.7c1,0.4,1.8,0.9,2.5,1.5s1.3,1.4,1.7,2.3
		c0.4,0.9,0.6,1.9,0.6,3c0,1.2-0.2,2.3-0.6,3.5v0l-6.8,19.2c-0.2,0.4-0.2,0.8-0.2,1.3c0,0.5,0.2,1,0.5,1.3c0.3,0.4,0.7,0.5,1.3,0.5
		c1.2,0,2.3-0.7,3.4-2.1C267,528.5,268,526.7,268.8,524.5z"/>
	<path class="st4" d="M286.5,528.1c0.1,0,0.2,0,0.3,0c0.1,0,0.2,0,0.3,0c1.4,0,2.6-0.4,3.5-1.3c1-0.9,1.7-2,2.3-3.5
		c0.3-1,0.8-1.7,1.6-2.1c0.7-0.4,1.4-0.5,2.1-0.3c0.7,0.2,1.2,0.6,1.6,1.3c0.4,0.7,0.4,1.6,0,2.7c-0.4,1.2-0.9,2.3-1.6,3.4
		c-0.7,1.1-1.5,2-2.5,2.7c-1,0.8-2.1,1.4-3.2,1.9c-1.2,0.5-2.5,0.7-3.8,0.7c-0.9,0-1.9-0.1-2.7-0.4c-1,1.6-2.2,2.8-3.8,3.6
		c-1.5,0.7-3.2,1.1-5,1.1c-1.2,0-2.3-0.2-3.3-0.5c-1.1-0.3-2-0.9-2.8-1.5c-0.8-0.7-1.5-1.5-2-2.4c-0.5-1-0.7-2-0.7-3.2
		c0-0.5,0.1-1.1,0.2-1.6c0.1-0.6,0.3-1.1,0.4-1.7l3.7-10.2c0.4-1,0.9-1.9,1.6-2.7c0.7-0.8,1.4-1.5,2.3-2c0.9-0.5,1.8-1,2.8-1.3
		c1-0.3,2.1-0.4,3.1-0.4c1.2,0,2.4,0.2,3.5,0.6c1.1,0.4,2.1,0.9,2.9,1.6c0.8,0.7,1.4,1.5,1.9,2.5c0.4,1,0.6,2,0.5,3.2
		c0,0.5-0.1,1.1-0.3,1.8c-0.2,0.7-0.4,1.5-0.6,2.2c-0.2,0.7-0.5,1.4-0.8,2.1c-0.3,0.7-0.5,1.1-0.7,1.4c-0.3,0.5-0.6,0.8-0.9,1
		c0.1,0.4,0.1,0.8,0.2,1.1C286.5,528,286.5,528.1,286.5,528.1z M282.3,521c0.2-0.5,0.3-1.1,0.5-1.7c0.2-0.7,0.3-1.2,0.3-1.6
		c0-0.5-0.2-1-0.6-1.4c-0.4-0.4-1-0.6-1.7-0.6c-0.7,0-1.3,0.2-1.9,0.6c-0.6,0.4-1,1-1.3,1.8c-1,2.4-1.8,4.4-2.4,6
		c-0.6,1.6-1.1,3-1.4,4c-0.1,0.3-0.2,0.6-0.3,1.1c-0.1,0.5-0.1,1-0.1,1.4s0.2,0.9,0.5,1.3c0.3,0.3,0.8,0.5,1.6,0.5
		c0.7,0,1.3-0.2,1.9-0.7c0.6-0.4,1.1-1.1,1.4-1.9c0,0,0-0.1,0-0.1c-0.4-0.4-0.8-0.8-1.1-1.2c-0.3-0.5-0.5-1.1-0.5-1.9
		c0-0.7,0.1-1.3,0.4-1.9s0.6-1.1,1.1-1.5c0.4-0.4,0.9-0.7,1.5-0.9c0.6-0.2,1.2-0.3,1.8-0.2c0-0.2,0.1-0.4,0.1-0.6
		C282.2,521.4,282.2,521.3,282.3,521z"/>
	<path class="st4" d="M314.2,524.4c0.2-0.8,0.7-1.4,1.4-1.6c0.7-0.3,1.4-0.3,2.1-0.2c0.7,0.2,1.3,0.5,1.7,1c0.5,0.5,0.5,1.2,0.3,1.9
		c-1.3,3.9-3.1,6.9-5.2,9c-2.1,2.1-4.5,3.2-7,3.2c-0.9,0-1.8-0.2-2.7-0.5c-0.8-0.3-1.6-0.8-2.2-1.3c-0.6-0.6-1.1-1.2-1.5-2
		c-0.4-0.8-0.5-1.7-0.5-2.7c0-0.9,0.2-1.9,0.5-2.9l2-5.6c0.2-0.5,0.2-1,0.1-1.3c-0.1-0.3-0.4-0.6-0.7-0.9c-0.3-0.2-0.7-0.4-1.1-0.5
		s-0.8-0.2-1.2-0.4l-2.6,6.9c-0.3,0.8-0.8,1.4-1.5,1.8c-0.7,0.4-1.4,0.5-2.1,0.4c-0.7-0.1-1.3-0.4-1.7-1c-0.4-0.5-0.5-1.3-0.2-2.3
		l3.3-9c-0.8-0.9-1.1-2-1.1-3.2c0-0.3,0-0.7,0.1-1.1c0.1-0.4,0.2-0.8,0.3-1.1c0.2-0.8,0.7-1.5,1.4-2c0.7-0.5,1.5-0.8,2.4-0.8
		c0.6,0,1.2,0.1,1.7,0.4c0.5,0.3,1,0.7,1.4,1.1c0.4,0.5,0.6,1,0.8,1.6c0.1,0.6,0.1,1.2-0.1,1.9c0.6,0.2,1.4,0.5,2.3,0.8
		c0.9,0.3,1.8,0.8,2.7,1.4c0.9,0.5,1.6,1.2,2.2,2c0.6,0.8,0.9,1.7,0.9,2.8c0,0.4,0,0.8-0.1,1.2c-0.1,0.4-0.2,0.8-0.3,1.3l-2.7,7.5
		c-0.1,0.3-0.2,0.7-0.2,1c0,0.3,0.1,0.6,0.2,0.8c0.2,0.2,0.4,0.3,0.7,0.3c0.5,0,1-0.2,1.5-0.6c0.5-0.4,1-0.9,1.6-1.6
		c0.5-0.7,1-1.5,1.5-2.4C313.4,526.6,313.8,525.6,314.2,524.4z"/>
	<path class="st4" d="M350.2,524.5c0.3-0.9,0.8-1.4,1.5-1.8s1.4-0.4,2.1-0.3c0.7,0.1,1.3,0.5,1.7,1c0.4,0.6,0.5,1.3,0.2,2.2
		c-0.8,2.3-1.7,4.2-2.7,5.8c-1,1.6-2,2.8-3.1,3.7c-1.1,0.9-2.3,1.6-3.4,2c-1.2,0.4-2.3,0.6-3.5,0.6c-1,0-2-0.1-2.9-0.4
		c-0.9-0.3-1.7-0.7-2.4-1.3c-0.7-0.6-1.2-1.2-1.6-2c-0.4-0.8-0.6-1.7-0.6-2.8c0-1,0.2-2,0.6-3.1l3.3-9.2c0.2-0.3,0.2-0.6,0.2-1
		c0-0.4-0.1-0.8-0.4-1s-0.6-0.4-1.1-0.4c-0.8,0-1.5,0.3-2.2,1c-0.7,0.7-1.3,1.6-1.8,2.8v-0.1c-0.4,1.1-0.8,2.3-1.2,3.5
		c-0.4,1.3-0.9,2.5-1.3,3.8c-0.5,1.3-0.9,2.5-1.3,3.7c-0.4,1.3-0.8,2.4-1.2,3.5c-0.3,0.8-0.7,1.4-1.2,1.8c-0.5,0.5-1.1,0.8-1.6,0.9
		c-0.6,0.2-1.1,0.2-1.7,0.1c-0.6-0.1-1-0.3-1.4-0.7c-0.4-0.4-0.6-0.9-0.8-1.5c-0.1-0.6,0-1.3,0.3-2.1l5.2-14.6
		c0.1-0.3,0.2-0.5,0.2-0.8c0-0.4-0.1-0.8-0.4-1c-0.3-0.2-0.7-0.3-1.1-0.3c-0.7,0-1.4,0.3-2.1,0.8c-0.7,0.5-1.3,1.3-1.7,2.3
		l-5.3,14.8c-0.2,0.7-0.6,1.3-1,1.7c-0.5,0.4-1,0.7-1.6,0.9c-0.6,0.2-1.2,0.2-1.7,0.1c-0.6-0.1-1.1-0.3-1.5-0.6
		c-0.4-0.3-0.7-0.7-0.9-1.3c-0.2-0.5-0.2-1.1,0.1-1.8l7.3-20.7c0.2-0.6,0.6-1,1.1-1.4c0.5-0.3,1.1-0.5,1.7-0.6
		c0.6-0.1,1.2,0,1.8,0.1c0.6,0.2,1,0.5,1.3,0.8c0.5-0.2,1-0.4,1.7-0.6c0.6-0.2,1.5-0.3,2.6-0.3c1.2,0.1,2.1,0.3,2.9,0.7
		c0.7,0.4,1.3,0.9,1.8,1.4c0.6-0.5,1.3-0.9,1.9-1.2c0.7-0.3,1.3-0.5,1.9-0.6c0.6-0.1,1.2-0.2,1.7-0.2c0.6,0,1,0,1.4,0
		c0.9,0.1,1.8,0.3,2.6,0.6c0.8,0.3,1.5,0.7,2.1,1.2c0.6,0.5,1.1,1.1,1.4,1.9c0.3,0.7,0.5,1.5,0.5,2.5c0,0.4,0,0.8-0.1,1.3
		c-0.1,0.4-0.2,0.9-0.3,1.3c-0.6,1.7-1.3,3.5-1.9,5.4c-0.7,1.8-1.3,3.6-1.9,5.4c-0.1,0.1-0.1,0.3-0.1,0.6c0,0.3,0.1,0.6,0.3,0.8
		c0.2,0.2,0.6,0.3,1,0.3c1.1,0,2.2-0.6,3.4-1.8C348.1,529.2,349.2,527.3,350.2,524.5z"/>
	<path class="st4" d="M373.7,525.4c0.2-0.7,0.5-1.2,1-1.6c0.4-0.4,0.9-0.7,1.4-0.8c0.5-0.1,1-0.2,1.5-0.1c0.5,0.1,0.9,0.3,1.3,0.6
		c0.3,0.3,0.6,0.8,0.6,1.3c0.1,0.5,0,1.2-0.3,1.9c-0.2,0.5-0.3,0.9-0.5,1.2s-0.3,0.6-0.5,1.1c-0.8,1.6-1.6,3-2.6,4.1s-1.9,2-2.8,2.6
		s-2,1.1-3,1.4c-1,0.3-2,0.4-2.9,0.4c-0.4,0-0.8,0-1.4-0.1c-0.6-0.1-1.1-0.2-1.8-0.4c-0.6-0.2-1.2-0.5-1.8-0.8
		c-0.6-0.4-1-0.8-1.4-1.4c-0.8,0.7-1.7,1.3-2.8,1.7c-1,0.4-2.1,0.6-3.1,0.6c-1,0-1.9-0.2-2.8-0.5c-0.9-0.4-1.6-0.9-2.2-1.5
		c-0.6-0.6-1.1-1.4-1.5-2.2c-0.4-0.8-0.5-1.7-0.5-2.7c0-0.4,0-0.8,0.1-1.2c0.1-0.4,0.2-0.8,0.3-1.2l4.3-12.1c0.7-1.7,1.7-3,3.1-3.9
		c1.4-0.9,2.9-1.3,4.4-1.3c1.3,0,2.4,0.2,3.2,0.5c0.9,0.3,1.6,0.6,2,0.9c0.5-0.7,1.3-1.1,2.1-1.3c0.9-0.2,1.7-0.2,2.4,0.1
		c0.7,0.3,1.3,0.8,1.7,1.5c0.4,0.7,0.4,1.7,0,2.8l-5.1,14.6c-0.2,0.6-0.2,1-0.2,1.3c0,0.8,0.4,1.1,1.2,1.1c1,0,2.1-0.5,3.2-1.6
		C371.6,529.5,372.7,527.8,373.7,525.4z M356.3,530.6c0.2,0.1,0.5,0.1,0.8,0c0.3-0.1,0.7-0.2,1-0.5c0.4-0.2,0.7-0.6,1.1-1.1
		c0.4-0.5,0.8-1.2,1.1-2l1.6-4.7c0.4-1.1,0.5-2,0.5-2.6c0-0.7-0.1-1.2-0.3-1.5c-0.2-0.3-0.4-0.6-0.6-0.7c-0.2-0.1-0.3-0.2-0.4-0.2
		c0,0-0.2-0.1-0.4-0.1c-0.2,0-0.5,0-0.8,0.1c-0.3,0.1-0.7,0.4-1.1,0.9c-0.4,0.4-0.8,1.2-1.1,2.1l-2.4,7.1c-0.1,0.2-0.2,0.5-0.2,0.8
		c-0.1,0.3-0.1,0.6,0,1c0,0.3,0.1,0.6,0.3,0.9C355.6,530.3,355.9,530.5,356.3,530.6z"/>
	<path class="st4" d="M398,524.5c0.3-0.9,0.8-1.5,1.5-1.8c0.7-0.3,1.5-0.5,2.2-0.3c0.7,0.1,1.3,0.5,1.7,1c0.4,0.6,0.5,1.3,0.1,2.2
		c-0.8,2.2-1.7,4.1-2.7,5.7c-1,1.5-2,2.8-3.2,3.8c-1.1,0.9-2.3,1.6-3.5,2.1c-1.2,0.4-2.4,0.6-3.5,0.6c-1,0-1.9-0.1-2.8-0.4
		s-1.7-0.7-2.3-1.3c-0.7-0.6-1.2-1.2-1.6-2c-0.4-0.8-0.6-1.7-0.6-2.8c0-1,0.2-2,0.6-3l3.2-9.1c0.1-0.2,0.1-0.4,0.2-0.6
		c0-0.2,0.1-0.4,0.1-0.5c0-0.4-0.1-0.8-0.4-1c-0.3-0.3-0.6-0.4-1-0.4c-0.6,0-1.3,0.3-2.1,0.8c-0.7,0.6-1.4,1.4-2,2.6
		c-0.4,1.1-0.8,2.3-1.3,3.5c-0.4,1.3-0.9,2.5-1.3,3.8s-0.9,2.6-1.4,3.8c-0.5,1.3-0.9,2.4-1.3,3.5c-0.2,0.7-0.6,1.3-1.1,1.8
		c-0.5,0.5-1,0.8-1.6,1c-0.6,0.2-1.1,0.3-1.7,0.2c-0.6,0-1.1-0.2-1.5-0.5c-0.4-0.3-0.7-0.7-0.9-1.2c-0.2-0.5-0.2-1.2,0-1.9l7.6-21.4
		c0.2-0.6,0.5-1.1,1.1-1.4c0.5-0.3,1.1-0.5,1.8-0.5c0.6,0,1.2,0.1,1.7,0.3c0.5,0.2,0.9,0.6,1,1c1.2-0.7,2.7-1,4.4-1
		c0.9,0,1.8,0.2,2.6,0.5c0.8,0.3,1.5,0.7,2.2,1.3c0.6,0.5,1.1,1.2,1.5,1.9c0.4,0.8,0.5,1.6,0.5,2.5c0,0.7-0.2,1.6-0.5,2.5l0,0
		l-3.6,10.2c-0.2,0.5-0.2,0.9-0.2,1.1c0,0.8,0.4,1.2,1.3,1.2c1.1,0,2.2-0.6,3.4-1.8C395.9,529.2,397,527.3,398,524.5z"/>
	<path class="st4" d="M422.7,524.4c0.2-0.5,0.4-1,0.8-1.3c0.4-0.3,0.8-0.6,1.3-0.7c0.5-0.1,1-0.1,1.5,0c0.5,0.1,0.9,0.3,1.3,0.5
		c0.3,0.3,0.6,0.6,0.8,1c0.2,0.4,0.1,1,0,1.5c-0.8,2.3-1.6,4.2-2.7,5.7c-1,1.5-2.1,2.8-3.2,3.8c-1.1,1-2.3,1.7-3.5,2.1
		c-1.2,0.4-2.3,0.6-3.5,0.6c-1.2,0-2.3-0.2-3.4-0.7c-1.1-0.5-2-1.1-2.7-2c-0.9,0.8-1.9,1.4-3,1.7c-1.1,0.4-2.1,0.5-3.2,0.5
		c-1,0-1.9-0.2-2.8-0.5c-0.9-0.3-1.6-0.8-2.3-1.4c-0.7-0.6-1.2-1.3-1.6-2.2c-0.4-0.8-0.6-1.8-0.6-2.8c0-0.4,0-0.9,0.1-1.3
		c0.1-0.4,0.2-0.9,0.3-1.3l4.3-12c0.3-0.9,0.7-1.6,1.3-2.3c0.5-0.7,1.1-1.2,1.8-1.6c0.7-0.4,1.4-0.7,2.1-1s1.5-0.3,2.2-0.3
		c1.1,0,2.1,0.2,3,0.6c1,0.4,1.8,1,2.5,1.8l3.7-10.6c0.3-1,0.7-1.7,1.2-2.3c0.5-0.5,1.1-0.9,1.6-1c0.6-0.2,1.1-0.2,1.7,0
		c0.6,0.2,1,0.5,1.4,0.9c0.4,0.4,0.6,1,0.8,1.6c0.1,0.7,0,1.4-0.2,2.2l-9,26.1c-0.1,0.2-0.2,0.5-0.2,0.8c0,0.4,0.1,0.7,0.4,1
		c0.2,0.3,0.6,0.4,1,0.4c1,0,2.1-0.6,3.3-1.8C420.5,529.1,421.6,527.2,422.7,524.4z M404.1,530.6c0.2,0.1,0.5,0.1,0.8,0
		c0.3-0.1,0.7-0.2,1-0.5c0.4-0.2,0.7-0.6,1.1-1.1c0.4-0.5,0.8-1.2,1.1-2l1.6-4.7c0.4-1.1,0.5-2,0.5-2.6s-0.1-1.2-0.3-1.5
		c-0.2-0.3-0.4-0.6-0.6-0.7c-0.2-0.1-0.3-0.2-0.4-0.2c0,0-0.2-0.1-0.4-0.1c-0.2,0-0.5,0-0.8,0.1c-0.3,0.1-0.7,0.4-1.1,0.9
		c-0.4,0.4-0.8,1.2-1.1,2.1l-2.4,7.1c-0.1,0.2-0.2,0.5-0.2,0.8c-0.1,0.3-0.1,0.6,0,1c0,0.3,0.1,0.6,0.3,0.9
		C403.5,530.3,403.8,530.5,404.1,530.6z"/>
	<path class="st4" d="M427.2,529.9c-0.1,0.3-0.1,0.5-0.1,0.7c0,0.4,0.2,0.8,0.5,1.1c0.3,0.3,0.7,0.5,1.3,0.5c0.5,0,0.9-0.1,1.5-0.4
		c0.5-0.3,1.1-0.7,1.6-1.3c0.5-0.6,1.1-1.4,1.7-2.4c0.6-1,1.1-2.2,1.7-3.7c0.3-0.9,0.8-1.4,1.6-1.7c0.7-0.3,1.4-0.4,2.1-0.2
		c0.7,0.1,1.3,0.5,1.7,1c0.4,0.5,0.5,1.2,0.2,2c-0.8,2.4-1.7,4.3-2.7,5.9c-1,1.6-2.1,2.8-3.2,3.8c-1.1,0.9-2.2,1.6-3.4,2
		c-1.1,0.4-2.3,0.6-3.4,0.6c-1.1,0-2.1-0.2-3-0.5c-0.9-0.3-1.8-0.7-2.5-1.3c-0.7-0.6-1.3-1.3-1.7-2.1c-0.4-0.8-0.6-1.8-0.6-2.9
		c0-0.4,0.1-0.9,0.2-1.4c0.1-0.5,0.2-1,0.4-1.5c0.4-1.1,0.8-2.2,1.2-3.4c0.4-1.2,0.8-2.4,1.3-3.6c0.4-1.2,0.8-2.4,1.3-3.6
		c0.4-1.2,0.8-2.3,1.2-3.4c0.4-1.3,1.1-2.1,1.9-2.6c0.9-0.5,1.7-0.6,2.5-0.5c0.8,0.2,1.4,0.7,1.9,1.5s0.5,1.9,0.1,3.2L427.2,529.9z
		 M433.4,506.6c-1,0-1.9-0.4-2.6-1.1c-0.7-0.7-1.1-1.6-1.1-2.7c0-1,0.4-1.9,1.1-2.6c0.7-0.7,1.6-1.1,2.6-1.1c1,0,1.9,0.4,2.7,1.1
		c0.7,0.7,1.1,1.6,1.1,2.6c0,1.1-0.4,2-1.1,2.7C435.3,506.2,434.4,506.6,433.4,506.6z"/>
	<path class="st4" d="M456.8,524.7c0.2-0.8,0.7-1.4,1.4-1.7c0.7-0.3,1.4-0.5,2.1-0.3c0.7,0.1,1.3,0.4,1.7,0.9s0.5,1.2,0.2,2.1
		c-0.8,2.2-1.8,4-3,5.6c-1.2,1.5-2.6,2.7-4.1,3.7c-1.5,0.9-3.1,1.6-4.7,2.1c-1.6,0.4-3.3,0.6-4.8,0.6c-1.7,0-3.2-0.2-4.7-0.6
		c-1.4-0.4-2.7-1-3.7-1.8c-1-0.8-1.9-1.7-2.5-2.8c-0.6-1.1-0.9-2.3-0.9-3.7c0-0.5,0.1-1,0.2-1.6c0.1-0.5,0.2-1.1,0.4-1.6l2.7-7.8
		c0.4-1.1,0.9-2.1,1.6-3c0.7-0.9,1.4-1.6,2.3-2.2c0.9-0.6,1.8-1,2.8-1.3c1-0.3,2-0.4,3-0.4c1.3,0,2.5,0.2,3.5,0.6
		c1.1,0.4,2,0.9,2.7,1.6c0.7,0.7,1.3,1.5,1.7,2.4c0.4,0.9,0.6,1.9,0.6,3c0,0.8-0.1,1.6-0.4,2.5c-0.3,1-0.8,2-1.3,2.8
		c-0.6,0.8-1.3,1.5-2.1,2.1c-0.8,0.6-1.7,1-2.6,1.3c-1,0.3-2,0.5-3,0.5c-0.9,0-1.8-0.1-2.6-0.4c-0.8-0.2-1.5-0.6-2.2-1l-0.4,0.9
		c-0.2,0.4-0.2,0.8-0.2,1.3c0,1.1,0.5,2,1.5,2.7c1,0.7,2.3,1.1,4,1.1c1,0,2-0.1,3-0.4c1.1-0.3,2.1-0.7,3-1.3c1-0.6,1.8-1.4,2.7-2.3
		C455.6,527.2,456.3,526.1,456.8,524.7z M446.8,516.2c-0.5,0-1,0.2-1.5,0.6c-0.5,0.4-0.9,0.9-1.2,1.6l-1,2.7
		c0.4,0.2,0.9,0.4,1.5,0.5c0.6,0.1,1.1,0.1,1.7,0c0.6-0.1,1-0.3,1.5-0.6c0.4-0.3,0.8-0.8,0.9-1.4c0.1-0.3,0.2-0.7,0.2-1.1
		c0-0.6-0.2-1.2-0.6-1.6C447.9,516.5,447.4,516.2,446.8,516.2z"/>
</g>
</svg>
